<mxfile host="app.diagrams.net" agent="Mozilla/5.0 (Windows NT 10.0; Win64; x64) AppleWebKit/537.36 (KHTML, like Gecko) Chrome/128.0.0.0 Safari/537.36" version="24.7.8">
  <diagram name="Page-1" id="Mqjeg_6ZPfpc0NQ8GRMz">
    <mxGraphModel dx="1434" dy="772" grid="1" gridSize="10" guides="1" tooltips="1" connect="1" arrows="1" fold="1" page="1" pageScale="1" pageWidth="850" pageHeight="1100" math="0" shadow="0">
      <root>
        <mxCell id="0" />
        <mxCell id="1" parent="0" />
        <mxCell id="uEp9JrDntGKhhF5rA8ad-1" value="" style="strokeWidth=2;html=1;shape=mxgraph.flowchart.start_1;whiteSpace=wrap;" vertex="1" parent="1">
          <mxGeometry x="325" y="60" width="100" height="60" as="geometry" />
        </mxCell>
        <mxCell id="uEp9JrDntGKhhF5rA8ad-2" value="Login" style="text;strokeColor=none;align=center;fillColor=none;html=1;verticalAlign=middle;whiteSpace=wrap;rounded=0;" vertex="1" parent="1">
          <mxGeometry x="345" y="75" width="60" height="30" as="geometry" />
        </mxCell>
        <mxCell id="uEp9JrDntGKhhF5rA8ad-6" value="" style="endArrow=classic;html=1;rounded=0;exitX=0.5;exitY=1;exitDx=0;exitDy=0;exitPerimeter=0;" edge="1" parent="1" source="uEp9JrDntGKhhF5rA8ad-1">
          <mxGeometry width="50" height="50" relative="1" as="geometry">
            <mxPoint x="400" y="390" as="sourcePoint" />
            <mxPoint x="375" y="170" as="targetPoint" />
          </mxGeometry>
        </mxCell>
        <mxCell id="uEp9JrDntGKhhF5rA8ad-7" value="" style="strokeWidth=2;html=1;shape=mxgraph.flowchart.display;whiteSpace=wrap;" vertex="1" parent="1">
          <mxGeometry x="320" y="170" width="110" height="60" as="geometry" />
        </mxCell>
        <mxCell id="uEp9JrDntGKhhF5rA8ad-8" value="Memasukkan username &amp;amp; password" style="text;strokeColor=none;align=center;fillColor=none;html=1;verticalAlign=middle;whiteSpace=wrap;rounded=0;" vertex="1" parent="1">
          <mxGeometry x="345" y="185" width="65" height="30" as="geometry" />
        </mxCell>
        <mxCell id="uEp9JrDntGKhhF5rA8ad-9" value="" style="endArrow=classic;html=1;rounded=0;exitX=0.5;exitY=1;exitDx=0;exitDy=0;exitPerimeter=0;" edge="1" parent="1">
          <mxGeometry width="50" height="50" relative="1" as="geometry">
            <mxPoint x="374.5" y="230" as="sourcePoint" />
            <mxPoint x="374.5" y="280" as="targetPoint" />
          </mxGeometry>
        </mxCell>
        <mxCell id="uEp9JrDntGKhhF5rA8ad-10" value="" style="shape=parallelogram;html=1;strokeWidth=2;perimeter=parallelogramPerimeter;whiteSpace=wrap;rounded=1;arcSize=12;size=0.23;" vertex="1" parent="1">
          <mxGeometry x="320" y="280" width="100" height="60" as="geometry" />
        </mxCell>
        <mxCell id="uEp9JrDntGKhhF5rA8ad-11" value="Riwayat point" style="text;strokeColor=none;align=center;fillColor=none;html=1;verticalAlign=middle;whiteSpace=wrap;rounded=0;" vertex="1" parent="1">
          <mxGeometry x="340" y="295" width="60" height="30" as="geometry" />
        </mxCell>
        <mxCell id="uEp9JrDntGKhhF5rA8ad-12" value="" style="endArrow=classic;html=1;rounded=0;entryX=1;entryY=0.5;entryDx=0;entryDy=0;entryPerimeter=0;" edge="1" parent="1" target="uEp9JrDntGKhhF5rA8ad-1">
          <mxGeometry width="50" height="50" relative="1" as="geometry">
            <mxPoint x="510" y="400" as="sourcePoint" />
            <mxPoint x="520" y="90" as="targetPoint" />
            <Array as="points">
              <mxPoint x="510" y="400" />
              <mxPoint x="510" y="90" />
            </Array>
          </mxGeometry>
        </mxCell>
        <mxCell id="uEp9JrDntGKhhF5rA8ad-13" value="" style="endArrow=classic;html=1;rounded=0;" edge="1" parent="1">
          <mxGeometry width="50" height="50" relative="1" as="geometry">
            <mxPoint x="510" y="400" as="sourcePoint" />
            <mxPoint x="430" y="400" as="targetPoint" />
          </mxGeometry>
        </mxCell>
        <mxCell id="uEp9JrDntGKhhF5rA8ad-14" value="" style="rounded=0;whiteSpace=wrap;html=1;" vertex="1" parent="1">
          <mxGeometry x="322.5" y="380" width="107.5" height="50" as="geometry" />
        </mxCell>
        <mxCell id="uEp9JrDntGKhhF5rA8ad-15" value="Memasukkan nama &amp;amp; pelanggaran&amp;nbsp;" style="text;strokeColor=none;align=center;fillColor=none;html=1;verticalAlign=middle;whiteSpace=wrap;rounded=0;" vertex="1" parent="1">
          <mxGeometry x="346.25" y="390" width="60" height="30" as="geometry" />
        </mxCell>
        <mxCell id="uEp9JrDntGKhhF5rA8ad-16" value="" style="endArrow=classic;html=1;rounded=0;exitX=0.5;exitY=1;exitDx=0;exitDy=0;" edge="1" parent="1" source="uEp9JrDntGKhhF5rA8ad-14">
          <mxGeometry width="50" height="50" relative="1" as="geometry">
            <mxPoint x="352.5" y="520" as="sourcePoint" />
            <mxPoint x="376" y="480" as="targetPoint" />
          </mxGeometry>
        </mxCell>
        <mxCell id="uEp9JrDntGKhhF5rA8ad-19" value="" style="strokeWidth=2;html=1;shape=mxgraph.flowchart.delay;whiteSpace=wrap;" vertex="1" parent="1">
          <mxGeometry x="330" y="480" width="100" height="60" as="geometry" />
        </mxCell>
        <mxCell id="uEp9JrDntGKhhF5rA8ad-20" value="Verifikasi data" style="text;strokeColor=none;align=center;fillColor=none;html=1;verticalAlign=middle;whiteSpace=wrap;rounded=0;" vertex="1" parent="1">
          <mxGeometry x="346.25" y="495" width="60" height="30" as="geometry" />
        </mxCell>
        <mxCell id="uEp9JrDntGKhhF5rA8ad-21" value="" style="strokeWidth=2;html=1;shape=mxgraph.flowchart.decision;whiteSpace=wrap;" vertex="1" parent="1">
          <mxGeometry x="325" y="600" width="100" height="100" as="geometry" />
        </mxCell>
        <mxCell id="uEp9JrDntGKhhF5rA8ad-22" value="" style="endArrow=classic;html=1;rounded=0;entryX=0.5;entryY=0;entryDx=0;entryDy=0;entryPerimeter=0;exitX=0.45;exitY=1;exitDx=0;exitDy=0;exitPerimeter=0;" edge="1" parent="1" source="uEp9JrDntGKhhF5rA8ad-19" target="uEp9JrDntGKhhF5rA8ad-21">
          <mxGeometry width="50" height="50" relative="1" as="geometry">
            <mxPoint x="370" y="550" as="sourcePoint" />
            <mxPoint x="450" y="340" as="targetPoint" />
          </mxGeometry>
        </mxCell>
        <mxCell id="uEp9JrDntGKhhF5rA8ad-23" value="Selesai" style="text;strokeColor=none;align=center;fillColor=none;html=1;verticalAlign=middle;whiteSpace=wrap;rounded=0;" vertex="1" parent="1">
          <mxGeometry x="347.5" y="635" width="60" height="30" as="geometry" />
        </mxCell>
      </root>
    </mxGraphModel>
  </diagram>
</mxfile>
